<?xml version="1.0" encoding="utf-8"?>
<!-- Generator: Adobe Illustrator 23.0.0, SVG Export Plug-In . SVG Version: 6.00 Build 0)  -->
<svg version="1.1" id="Слой_1" xmlns="http://www.w3.org/2000/svg" xmlns:xlink="http://www.w3.org/1999/xlink" x="0px" y="0px"
	 viewBox="0 0 100 100" style="enable-background:new 0 0 100 100;" xml:space="preserve">
<style type="text/css">
	.st0{fill:#E72C2B;}
</style>
<path d="M85.3,49.2h-2.9V41c0-11.2-3.1-21.4-8.2-26.7l2.1-2c5.5,5.8,9,16.8,9,28.7V49.2z"/>
<path d="M35,90.9H26V62.3H35V90.9z M28.9,88h3.3V65.2h-3.3V88z"/>
<path d="M48,90.9h-9.1V62.3H48V90.9z M41.8,88h3.3V65.2h-3.3V88z"/>
<path d="M61,90.9h-9.1V62.3H61V90.9z M54.8,88h3.3V65.2h-3.3V88z"/>
<path d="M74,90.9h-9.1V62.3H74V90.9z M67.8,88h3.3V65.2h-3.3V88z"/>
<path d="M77.7,98.3H22.2c-2.6,0-4.9-1.6-5.9-4L8.2,73.7c-0.3-0.7-0.4-1.5-0.4-2.3v-9.1h84.4v9.1c0,0.8-0.1,1.6-0.4,2.3l-8.2,20.6
	C82.6,96.7,80.3,98.3,77.7,98.3z M10.7,65.2v6.2c0,0.4,0.1,0.8,0.2,1.2l8.1,20.6c0.5,1.3,1.8,2.1,3.2,2.1h55.5
	c1.4,0,2.6-0.8,3.2-2.1L89,72.6c0.2-0.4,0.2-0.8,0.2-1.2v-6.2H10.7z"/>
<path d="M77.5,50.4L48.6,34.6c-1.3-0.7-3-0.5-4,0.6L29.5,50.3l-2.1-2.1l15.1-15.1c2-2,5.1-2.4,7.5-1.1l28.9,15.9L77.5,50.4z"/>
<path d="M12.1,49.2H9.2c0-11.5,9.4-20.9,20.9-20.9c5,0,9.8,1.8,13.6,5l-1.9,2.2c-3.3-2.8-7.4-4.3-11.7-4.3
	C20.2,31.2,12.1,39.3,12.1,49.2z"/>
<path class="st0" d="M93.6,65.2H6.3c-3.5,0-6.3-2.8-6.3-6.3V54c0-3.5,2.8-6.3,6.3-6.3h87.3c3.5,0,6.3,2.8,6.3,6.3v4.9
	C99.9,62.3,97.1,65.2,93.6,65.2z M6.3,50.6c-1.9,0-3.4,1.5-3.4,3.4v4.9c0,1.9,1.5,3.4,3.4,3.4h87.3c1.9,0,3.4-1.5,3.4-3.4V54
	c0-1.9-1.5-3.4-3.4-3.4H6.3z"/>
<path d="M74.7,15.1H60.2c-3.5,0-6.3-2.8-6.3-6.3V7.3c0-3.5,2.8-6.3,6.3-6.3h14.6C78.2,1,81,3.8,81,7.3v1.5
	C81,12.3,78.2,15.1,74.7,15.1z M60.2,3.9c-1.9,0-3.4,1.5-3.4,3.4v1.5c0,1.9,1.5,3.4,3.4,3.4h14.6c1.9,0,3.4-1.5,3.4-3.4V7.3
	c0-1.9-1.5-3.4-3.4-3.4H60.2z"/>
<path d="M52.9,34.2L50,33.9c1.1-9,4.1-16.8,8.4-21.4l2.1,2C56.7,18.6,53.9,25.8,52.9,34.2z"/>
</svg>
