<?xml version="1.0" encoding="utf-8"?>
<!-- Generator: Adobe Illustrator 23.0.0, SVG Export Plug-In . SVG Version: 6.00 Build 0)  -->
<svg version="1.1" id="Слой_1" xmlns="http://www.w3.org/2000/svg" xmlns:xlink="http://www.w3.org/1999/xlink" x="0px" y="0px"
	 viewBox="0 0 100 100" style="enable-background:new 0 0 100 100;" xml:space="preserve">
<style type="text/css">
	.st0{fill:#E72C2B;}
	.st1{fill:none;stroke:#000000;stroke-width:3;stroke-miterlimit:10;}
</style>
<path d="M57.7,78h-15v-3h15c1.9,0,3.5-1.5,3.5-3.5V18.3c0-1.9-1.5-3.5-3.5-3.5H6.4c-1.9,0-3.5,1.5-3.5,3.5v53.3
	c0,1.9,1.5,3.5,3.5,3.5h15v3h-15C2.9,78,0,75.1,0,71.6V18.3c0-3.5,2.9-6.4,6.4-6.4h51.3c3.5,0,6.4,2.9,6.4,6.4v53.3
	C64.2,75.1,61.3,78,57.7,78z"/>
<path class="st0" d="M32.1,59.6c-11.2,0-20.2-9.1-20.2-20.2s9.1-20.2,20.2-20.2s20.2,9.1,20.2,20.2S43.2,59.6,32.1,59.6z M32.1,22.1
	c-9.5,0-17.3,7.7-17.3,17.3s7.7,17.3,17.3,17.3s17.3-7.7,17.3-17.3S41.6,22.1,32.1,22.1z"/>
<path d="M32.1,88.7c-6.7,0-12.2-5.5-12.2-12.2c0-6.7,5.5-12.2,12.2-12.2s12.2,5.5,12.2,12.2C44.2,83.2,38.8,88.7,32.1,88.7z
	 M32.1,67.3c-5.1,0-9.2,4.1-9.2,9.2c0,5.1,4.1,9.2,9.2,9.2s9.2-4.1,9.2-9.2C41.3,71.5,37.2,67.3,32.1,67.3z"/>
<path d="M80.8,88.7c-6.7,0-12.2-5.5-12.2-12.2c0-6.7,5.5-12.2,12.2-12.2c6.7,0,12.2,5.5,12.2,12.2C93,83.2,87.5,88.7,80.8,88.7z
	 M80.8,67.3c-5.1,0-9.2,4.1-9.2,9.2c0,5.1,4.1,9.2,9.2,9.2c5.1,0,9.2-4.1,9.2-9.2C90,71.5,85.9,67.3,80.8,67.3z"/>
<polygon class="st0" points="26.5,47.1 24.4,45 30.6,38.8 30.6,28.1 33.6,28.1 33.6,40 "/>
<path d="M93.7,78h-2.2v-3h2.2c1.9,0,3.4-1.5,3.4-3.4V54.4c0-0.7-0.2-1.5-0.7-2.1L81.1,32.1c-0.6-0.9-1.7-1.4-2.7-1.4H62.7v-3h15.7
	c2,0,3.9,0.9,5.1,2.5l15.4,20.3c0.8,1.1,1.3,2.5,1.3,3.9v17.2C100.1,75.1,97.2,78,93.7,78z"/>
<rect x="53.2" y="75.1" width="16.9" height="3"/>
<path class="st1" d="M98.6,56.4"/>
<path d="M98.6,55.9H78.1c-3.5,0-6.4-2.9-6.4-6.4V29.2h3v20.3c0,1.9,1.6,3.5,3.5,3.5h20.5V55.9z"/>
</svg>
