<?xml version="1.0" encoding="utf-8"?>
<!-- Generator: Adobe Illustrator 23.0.0, SVG Export Plug-In . SVG Version: 6.00 Build 0)  -->
<svg version="1.1" id="Слой_1" xmlns="http://www.w3.org/2000/svg" xmlns:xlink="http://www.w3.org/1999/xlink" x="0px" y="0px"
	 viewBox="0 0 100 100" style="enable-background:new 0 0 100 100;" xml:space="preserve">
<style type="text/css">
	.st0{fill:#E72C2B;}
</style>
<path d="M45.8,100c-1.8,0-3.6-0.7-5-2.1L2.1,59.2c-1.3-1.3-2.1-3.1-2.1-5s0.7-3.7,2.1-5L49.2,2.1c1.3-1.3,3.1-2.1,5-2.1H93
	c3.9,0,7,3.2,7,7v38.7c0,1.9-0.7,3.7-2.1,5L50.8,97.9C49.4,99.3,47.6,100,45.8,100z M54.2,3.3c-1,0-2,0.4-2.7,1.1L4.4,51.5
	c-0.7,0.7-1.1,1.7-1.1,2.7s0.4,2,1.1,2.7l38.7,38.7c1.5,1.5,3.9,1.5,5.4,0l47.2-47.2c0.7-0.7,1.1-1.7,1.1-2.7V7
	C96.7,5,95,3.3,93,3.3H54.2z"/>
<path d="M75.2,34c-2.4,0-4.7-1-6.5-2.7c-1.7-1.7-2.7-4-2.7-6.5s1-4.7,2.7-6.5l0,0c3.6-3.6,9.4-3.6,12.9,0c1.7,1.7,2.7,4,2.7,6.5
	s-1,4.7-2.7,6.5C79.9,33,77.6,34,75.2,34z M71,20.7c-1.1,1.1-1.7,2.6-1.7,4.2c0,1.6,0.6,3.1,1.7,4.2c1.1,1.1,2.6,1.7,4.2,1.7
	c1.6,0,3.1-0.6,4.2-1.7c1.1-1.1,1.7-2.6,1.7-4.2c0-1.6-0.6-3.1-1.7-4.2C77,18.4,73.3,18.4,71,20.7L71,20.7z"/>
<path class="st0" d="M43.7,71.5c-2.3-0.6-4.3-1.8-5.9-3.4c-2.9-2.9-4.2-6.9-3.8-11.3c0.4-4.3,2.4-8.5,5.7-11.8
	c6.9-6.9,17.3-7.7,23.1-1.9c1.6,1.6,2.8,3.6,3.4,5.9L63,49.9c-0.5-1.7-1.3-3.2-2.5-4.4c-4.6-4.6-12.9-3.7-18.5,1.9
	c-2.8,2.8-4.5,6.2-4.8,9.8c-0.3,3.4,0.7,6.5,2.9,8.7c1.2,1.2,2.7,2.1,4.4,2.5L43.7,71.5z"/>
<rect x="45.7" y="38.7" transform="matrix(0.7071 -0.7071 0.7071 0.7071 -19.6047 47.3025)" class="st0" width="3.3" height="17.2"/>
<rect x="40.7" y="43.2" transform="matrix(0.7071 -0.7071 0.7071 0.7071 -23.5163 44.806)" class="st0" width="3.3" height="15.1"/>
</svg>
